<svg id="Capa_1" enable-background="new 0 0 512 512" height="512" viewBox="0 0 512 512" width="512" xmlns="http://www.w3.org/2000/svg"><g><path d="m48.675 126.962h414.65c3.518 0 6.702 1.426 9.007 3.731l15.241 7.946 17.86-23.807 2.835-20.076c-2.305-2.305-5.49-3.731-9.007-3.731h-486.523c-3.518 0-6.702 1.426-9.007 3.731l5.326 29.517 12.543 14.365 18.068-7.946c2.305-2.304 5.49-3.73 9.007-3.73z" fill="#544f57"/><path d="m492.166 110.859 16.103-16.103c-2.305-2.305-5.49-3.731-9.007-3.731h-7.096z" fill="#454045"/><path d="m463.325 385.038h-414.65c-3.518 0-6.702-1.426-9.007-3.731l-15.86-2.442-20.077 13.454v24.925c2.305 2.305 5.49 3.731 9.007 3.731h486.524c3.518 0 6.702-1.426 9.007-3.731v-20.603l-18.378-17.776-17.559 2.442c-2.305 2.306-5.49 3.731-9.007 3.731z" fill="#544f57"/><path d="m492.166 420.975h7.096c3.518 0 6.702-1.426 9.007-3.731l-16.103-16.103z" fill="#454045"/><path d="m35.937 372.3v-232.6c0-3.518 1.426-6.702 3.731-9.007l-35.937-35.937c-2.305 2.305-3.731 5.489-3.731 9.007v304.474c0 3.518 1.426 6.702 3.731 9.007l35.937-35.937c-2.305-2.305-3.731-5.489-3.731-9.007z" fill="#868086"/><path d="m472.332 130.693c2.305 2.305 3.731 5.49 3.731 9.007v232.6c0 3.518-1.426 6.702-3.731 9.007l35.937 35.937c2.305-2.305 3.731-5.49 3.731-9.007v-304.474c0-3.518-1.426-6.702-3.731-9.007z" fill="#868086"/><path d="m492.166 110.859v290.283l16.103 16.103c2.305-2.305 3.731-5.49 3.731-9.007v-304.475c0-3.518-1.426-6.702-3.731-9.007z" fill="#787078"/></g></svg>